<?xml version="1.0" encoding="utf-8"?>
<!-- Generator: Adobe Illustrator 16.0.4, SVG Export Plug-In . SVG Version: 6.00 Build 0)  -->
<!DOCTYPE svg PUBLIC "-//W3C//DTD SVG 1.1//EN" "http://www.w3.org/Graphics/SVG/1.1/DTD/svg11.dtd">
<svg version="1.1" xmlns="http://www.w3.org/2000/svg" xmlns:xlink="http://www.w3.org/1999/xlink" x="0px" y="0px" width="200px"
	 height="200px" viewBox="0 0 200 200" enable-background="new 0 0 200 200" xml:space="preserve">
<g id="Layer_2" display="none">
</g>
<g id="Layer_1">
	<g id="ZoFVyY_3_">
		<g>
			<g>
				<path fill="none" d="M143.096,70.618c-0.039-0.236-0.055-0.439-0.096-0.643c-0.631-3.077-1.533-6.077-2.717-8.997
					c-3.094-7.588-7.732-14.114-13.629-19.77c-6.326-6.048-13.598-10.643-21.66-14.019c-9.92-4.149-20.281-6.14-31.014-6.264
					c-3.5-0.039-6.996,0.142-10.475,0.547c-4.277,0.491-8.5,1.297-12.656,2.452c-9.092,2.531-17.49,6.5-25.051,12.171
					c-5.953,4.459-11.043,9.752-15.068,16.025c-5.061,7.91-7.914,16.535-8.275,25.949c-0.18,4.858,0.361,9.65,1.602,14.352
					c1.945,7.419,5.436,14.06,10.221,20.04c3.652,4.566,7.902,8.512,12.645,11.934c0.297,0.215,0.602,0.451,0.85,0.727
					c1.088,1.207,1.324,2.6,0.908,4.149c-1.105,4.082-2.193,8.163-3.279,12.249c-0.197,0.745-0.316,1.506-0.205,2.289
					c0.188,1.286,1.072,1.934,2.357,1.714c0.766-0.124,1.465-0.438,2.143-0.823c1.193-0.704,2.4-1.403,3.607-2.107
					c3.789-2.216,7.586-4.432,11.387-6.652c1.014-0.597,2.092-0.901,3.273-0.873c0.764,0.027,1.473,0.271,2.199,0.474
					c5.498,1.561,11.09,2.542,16.789,2.959c3.117,0.231,6.24,0.248,9.357,0.181c0.219-0.006,0.434-0.04,0.688-0.057
					c-0.08-0.26-0.137-0.463-0.197-0.654c-1.049-3.253-1.727-6.578-2.008-9.978c-0.236-2.739-0.215-5.485,0.045-8.225
					c0.344-3.428,1.049-6.759,2.154-10.012c2.514-7.457,6.697-13.884,12.199-19.471c5.129-5.209,11.059-9.307,17.639-12.475
					c7.604-3.67,15.631-5.874,24.014-6.798c3.889-0.435,7.795-0.582,11.709-0.396C142.719,70.624,142.889,70.618,143.096,70.618z
					 M138.717,75.241c-4.498-0.012-8.941,0.405-13.35,1.257c-6.934,1.336-13.506,3.681-19.662,7.159
					c-6.357,3.591-11.906,8.15-16.404,13.929c-5.398,6.939-8.676,14.73-9.385,23.541c-0.305,3.789-0.098,7.549,0.648,11.28
					c1.148,5.834,3.461,11.178,6.787,16.1c4.295,6.319,9.797,11.381,16.285,15.372c10.479,6.432,21.945,9.442,34.189,9.64
					c3.41,0.057,6.805-0.158,10.186-0.609c3.523-0.462,7.008-1.178,10.4-2.215c1.416-0.428,2.678-0.281,3.947,0.457
					c4.07,2.39,8.16,4.74,12.244,7.103c0.371,0.209,0.754,0.434,1.16,0.568c0.418,0.147,0.867,0.243,1.318,0.255
					c0.746,0.028,1.318-0.401,1.479-1.134c0.102-0.484,0.135-1.015,0.055-1.504c-0.117-0.795-0.344-1.573-0.541-2.357
					c-0.783-3.004-1.578-5.992-2.355-8.996c-0.338-1.325,0.078-2.476,1.162-3.293c0.18-0.135,0.365-0.259,0.551-0.395
					c5.119-3.737,9.527-8.184,12.988-13.512c5.311-8.156,7.768-17.069,7.029-26.827c-0.275-3.591-1.031-7.091-2.227-10.496
					c-2.355-6.703-6.166-12.481-11.145-17.503c-4.836-4.871-10.412-8.676-16.623-11.568
					C158.346,77.236,148.738,75.263,138.717,75.241z"/>
				<path fill-rule="evenodd" clip-rule="evenodd" fill="#FFFFFF" d="M143.096,70.618c-0.207,0-0.377,0.006-0.545,0
					c-3.914-0.187-7.82-0.039-11.709,0.396c-8.383,0.924-16.41,3.128-24.014,6.798c-6.58,3.168-12.51,7.266-17.639,12.475
					c-5.502,5.587-9.686,12.014-12.199,19.471c-1.105,3.253-1.811,6.584-2.154,10.012c-0.26,2.739-0.281,5.485-0.045,8.225
					c0.281,3.399,0.959,6.725,2.008,9.978c0.061,0.191,0.117,0.395,0.197,0.654c-0.254,0.017-0.469,0.051-0.688,0.057
					c-3.117,0.067-6.24,0.051-9.357-0.181c-5.699-0.417-11.291-1.398-16.789-2.959c-0.727-0.203-1.436-0.446-2.199-0.474
					c-1.182-0.028-2.26,0.276-3.273,0.873c-3.801,2.221-7.598,4.437-11.387,6.652c-1.207,0.704-2.414,1.403-3.607,2.107
					c-0.678,0.385-1.377,0.699-2.143,0.823c-1.285,0.22-2.17-0.428-2.357-1.714c-0.111-0.783,0.008-1.544,0.205-2.289
					c1.086-4.086,2.174-8.167,3.279-12.249c0.416-1.55,0.18-2.942-0.908-4.149c-0.248-0.275-0.553-0.512-0.85-0.727
					c-4.742-3.422-8.992-7.367-12.645-11.934c-4.785-5.98-8.275-12.621-10.221-20.04c-1.24-4.701-1.781-9.493-1.602-14.352
					c0.361-9.414,3.215-18.039,8.275-25.949c4.025-6.273,9.115-11.566,15.068-16.025c7.561-5.671,15.959-9.64,25.051-12.171
					c4.156-1.155,8.379-1.961,12.656-2.452c3.479-0.405,6.975-0.586,10.475-0.547c10.732,0.124,21.094,2.114,31.014,6.264
					c8.062,3.376,15.334,7.971,21.66,14.019c5.896,5.655,10.535,12.182,13.629,19.77c1.184,2.92,2.086,5.92,2.717,8.997
					C143.041,70.179,143.057,70.382,143.096,70.618z M58.859,60.939c0.018-5.163-4.17-9.402-9.305-9.432
					c-5.215-0.033-9.422,4.127-9.488,9.308c-0.062,4.921,3.885,9.442,9.357,9.487C54.605,70.337,58.832,66.12,58.859,60.939z
					 M96.719,70.309c5.176-0.006,9.398-4.229,9.402-9.408c0.008-5.164-4.227-9.393-9.406-9.393s-9.398,4.217-9.398,9.397
					C87.316,66.08,91.545,70.309,96.719,70.309z"/>
				<path fill-rule="evenodd" clip-rule="evenodd" fill="#FFFFFF" d="M138.717,75.241c10.021,0.021,19.629,1.995,28.738,6.251
					c6.211,2.893,11.787,6.697,16.623,11.568c4.979,5.021,8.789,10.8,11.145,17.503c1.195,3.405,1.951,6.905,2.227,10.496
					c0.738,9.758-1.719,18.671-7.029,26.827c-3.461,5.328-7.869,9.774-12.988,13.512c-0.186,0.136-0.371,0.26-0.551,0.395
					c-1.084,0.817-1.5,1.968-1.162,3.293c0.777,3.004,1.572,5.992,2.355,8.996c0.197,0.784,0.424,1.562,0.541,2.357
					c0.08,0.489,0.047,1.02-0.055,1.504c-0.16,0.732-0.732,1.162-1.479,1.134c-0.451-0.012-0.9-0.107-1.318-0.255
					c-0.406-0.135-0.789-0.359-1.16-0.568c-4.084-2.362-8.174-4.713-12.244-7.103c-1.27-0.738-2.531-0.885-3.947-0.457
					c-3.393,1.037-6.877,1.753-10.4,2.215c-3.381,0.451-6.775,0.666-10.186,0.609c-12.244-0.197-23.711-3.208-34.189-9.64
					c-6.488-3.991-11.99-9.053-16.285-15.372c-3.326-4.922-5.639-10.266-6.787-16.1c-0.746-3.731-0.953-7.491-0.648-11.28
					c0.709-8.811,3.986-16.602,9.385-23.541c4.498-5.778,10.047-10.338,16.404-13.929c6.156-3.479,12.729-5.823,19.662-7.159
					C129.775,75.646,134.219,75.229,138.717,75.241z M150.104,108.618c0,4.42,3.535,7.977,7.938,7.988
					c4.441,0.011,8.016-3.54,8.021-7.966c0.006-4.402-3.545-7.977-7.943-7.988C153.678,100.647,150.109,104.182,150.104,108.618z
					 M119.014,116.606c4.426,0.011,7.973-3.513,8.023-7.909c0.043-4.386-3.564-8.05-7.949-8.045c-4.42,0-7.971,3.524-8.016,7.916
					C111.021,112.947,114.629,116.629,119.014,116.606z"/>
				<path fill-rule="evenodd" clip-rule="evenodd" fill="none" d="M58.859,60.939c-0.027,5.181-4.254,9.397-9.436,9.363
					c-5.473-0.045-9.42-4.566-9.357-9.487c0.066-5.181,4.273-9.341,9.488-9.308C54.689,51.537,58.877,55.776,58.859,60.939z"/>
				<path fill-rule="evenodd" clip-rule="evenodd" fill="none" d="M96.719,70.309c-5.174,0-9.402-4.229-9.402-9.403
					c0-5.181,4.219-9.397,9.398-9.397s9.414,4.229,9.406,9.393C106.117,66.08,101.895,70.303,96.719,70.309z"/>
				<path fill-rule="evenodd" clip-rule="evenodd" fill="none" d="M150.104,108.618c0.006-4.437,3.574-7.971,8.016-7.966
					c4.398,0.012,7.949,3.586,7.943,7.988c-0.006,4.426-3.58,7.977-8.021,7.966C153.639,116.595,150.104,113.038,150.104,108.618z"
					/>
				<path fill-rule="evenodd" clip-rule="evenodd" fill="none" d="M119.014,116.606c-4.385,0.022-7.992-3.659-7.941-8.038
					c0.045-4.392,3.596-7.916,8.016-7.916c4.385-0.005,7.992,3.659,7.949,8.045C126.986,113.094,123.439,116.617,119.014,116.606z"
					/>
			</g>
		</g>
	</g>
</g>
</svg>
